# Blender 4.0.1
# www.blender.org
mtllib skull.mtl
o anjing
v 0.906283 0.010756 -1.387932
v 0.929172 0.694710 -1.476296
v -0.967285 0.089963 -2.038705
v -1.016860 -0.125106 -2.033132
v -0.732331 -0.075283 -1.264836
v -0.732331 0.541612 -1.270403
v -0.311113 -0.005803 -2.222970
v -0.264168 0.250642 -2.249379
v 0.174030 -0.063601 -1.994842
v 0.477103 -0.184744 -1.945438
v 0.135754 0.498260 -2.053594
v 0.733586 0.502602 -1.764337
v -0.709026 -0.158806 -1.859298
v -0.769102 -0.096760 -1.685084
v -0.731250 0.580972 -1.763235
v -0.951088 0.339519 -1.914273
v 0.826332 -0.018075 -1.366193
v 1.054836 -0.027087 -0.152427
v 0.587364 3.283178 0.846001
v 0.716631 2.503788 1.761828
v -0.826332 -0.018075 -1.366193
v -1.054836 -0.027087 -0.152427
v -0.587364 3.283178 0.846001
v -0.716631 2.503788 1.761828
v -0.873484 0.233077 0.246554
v -0.708043 0.997541 0.751645
v -0.798151 1.659938 1.596962
v 0.826332 0.670785 -1.694566
v 0.826332 1.837714 -1.042996
v 0.826332 2.822093 0.041005
v -0.826332 2.822093 0.041005
v -0.826332 1.837714 -1.042996
v -0.826332 0.670785 -1.694566
v 0.798151 1.659938 1.596962
v 0.708043 0.997541 0.751645
v 0.873484 0.233077 0.246554
v 0.641081 -0.205486 1.572476
v 0.473364 1.941697 1.506701
v 0.413026 -0.205486 1.113214
v 0.473364 1.805607 0.909078
v 0.954753 -0.205486 1.609942
v 0.891012 1.941697 1.506701
v 0.951350 -0.205486 1.113214
v 0.891012 1.805607 0.909078
v 0.639288 0.040999 1.613685
v 0.650053 0.186478 1.366216
v 0.413026 0.243182 1.022487
v 0.413026 -0.026509 1.101873
v 0.951350 0.243182 1.022487
v 0.951350 -0.026509 1.101873
v 0.888310 0.186478 1.414471
v 0.968027 0.040999 1.648995
v 0.443195 1.247727 1.392132
v 0.443195 0.845128 0.858045
v 0.921181 0.845128 0.858045
v 0.921181 1.247727 1.392132
v -0.649995 2.529976 1.730340
v -0.528292 3.995006 2.123307
v -0.700669 3.190057 0.814337
v -0.441991 4.140658 1.195594
v 0.649995 2.529976 1.730340
v 0.528292 3.995006 2.123307
v 0.700669 3.190057 0.814337
v 0.441991 4.140658 1.195594
v -0.535169 3.233587 2.307119
v -0.700669 3.958981 0.954138
v 0.700669 3.958981 0.954138
v 0.535169 3.233587 2.307119
v 0.270550 2.940256 2.796870
v 0.228652 2.522793 2.636856
v -0.228652 2.522793 2.636856
v -0.270550 2.940256 2.796870
v 0.000000 3.190057 0.814337
v 0.000000 4.140658 1.195594
v 0.000000 2.529976 1.730340
v 0.000000 4.067101 2.123307
v 0.000000 3.233587 2.307119
v 0.000000 3.667832 0.954138
v 0.000000 2.522793 2.636856
v 0.000000 2.940256 2.796870
v -0.778311 2.860017 1.272339
v -0.485142 4.067832 1.659450
v 0.778311 2.860017 1.272339
v 0.485142 4.067832 1.659450
v 0.733736 3.741858 1.630628
v -0.733736 3.741858 1.630628
v 0.000000 4.103879 1.659450
v 0.000000 2.860017 1.272339
v -0.857842 3.843467 0.954138
v -0.857842 3.190057 0.814337
v 0.857842 3.843467 0.954138
v 0.857842 3.190057 0.814337
v 0.952901 2.860017 1.272339
v -0.898327 3.626345 1.630628
v -0.952901 2.860017 1.272339
v 0.898327 3.626345 1.630628
v 0.581073 -0.146352 0.308820
v 0.455482 0.841360 0.200429
v 0.262744 -0.170649 -1.162753
v 0.269636 0.822564 -1.183238
v 1.108589 -0.179553 0.267226
v 0.835114 0.990790 0.326209
v 1.044255 -0.204416 -1.207279
v 0.824525 1.023018 -1.123774
v 0.582639 0.181144 0.411211
v 0.265440 0.124913 -1.177907
v 1.210295 0.169433 -1.296373
v 1.231868 0.190454 0.287542
v 1.015112 0.146788 0.600044
v 1.013731 -0.149128 0.595282
v 0.577999 -0.150212 0.589072
v 0.579380 0.145704 0.593834
v -0.561205 -0.205486 1.572476
v -0.383581 1.941697 1.506701
v -0.319679 -0.205486 1.113214
v -0.383581 1.805607 0.909078
v -0.893406 -0.205486 1.609942
v -0.825900 1.941697 1.506701
v -0.889802 -0.205486 1.113214
v -0.825900 1.805607 0.909078
v -0.559307 0.040999 1.613685
v -0.570707 0.186478 1.366216
v -0.319679 0.243182 1.022487
v -0.319679 -0.026509 1.101873
v -0.889802 0.243182 1.022487
v -0.889802 -0.026509 1.101873
v -0.823039 0.186478 1.414471
v -0.907465 0.040999 1.648995
v -0.351630 1.247727 1.392132
v -0.351630 0.845128 0.858045
v -0.857851 0.845128 0.858045
v -0.857851 1.247727 1.392132
v -0.637399 -0.146352 0.308820
v -0.511808 0.841360 0.200429
v -0.319069 -0.170649 -1.162753
v -0.325962 0.822564 -1.183238
v -1.164915 -0.179553 0.267226
v -0.891440 0.990790 0.326209
v -1.100581 -0.204416 -1.207279
v -0.880851 1.023018 -1.123774
v -0.638964 0.181144 0.411211
v -0.321766 0.124913 -1.177907
v -1.266621 0.169433 -1.296373
v -1.288194 0.190454 0.287542
v -1.071438 0.146788 0.600044
v -1.070057 -0.149128 0.595282
v -0.634324 -0.150212 0.589072
v -0.635706 0.145704 0.593834
vn 0.0593 -0.9417 -0.3313
vn -0.0356 0.9824 -0.1833
vn -0.2717 -0.0097 -0.9623
vn 0.0939 0.0701 0.9931
vn 0.8251 -0.1309 -0.5496
vn -0.9987 0.0318 0.0397
vn 0.3551 0.0295 -0.9344
vn -0.0371 -0.9754 -0.2174
vn -0.0513 0.9096 -0.4124
vn -0.8573 -0.0915 0.5065
vn 0.0265 -0.9785 0.2045
vn -0.6342 -0.1061 0.7658
vn -0.2559 0.6657 -0.7010
vn 0.4468 -0.0973 -0.8893
vn -0.0000 -0.8677 0.4970
vn -0.0000 -0.7616 -0.6481
vn 0.9797 -0.1916 0.0585
vn -0.0000 0.1917 -0.9814
vn -0.9808 -0.1709 -0.0941
vn -0.0000 1.0000 0.0074
vn -0.9797 -0.1916 0.0585
vn -0.9973 -0.0615 -0.0400
vn -0.9980 0.0622 -0.0065
vn -0.0000 0.8376 -0.5462
vn -0.0000 0.5513 -0.8343
vn -0.0000 0.7871 -0.6168
vn 0.9808 -0.1709 -0.0941
vn 0.9980 0.0622 -0.0065
vn 0.9973 -0.0615 -0.0400
vn -0.0000 0.4303 0.9027
vn -0.0000 -0.4875 0.8731
vn -0.0000 -0.7403 0.6723
vn 0.9991 -0.0383 0.0182
vn -0.0000 -0.0531 0.9986
vn -0.9991 -0.0383 0.0182
vn -0.0000 0.1629 -0.9866
vn -0.0000 1.0000 -0.0000
vn -0.0000 -0.9750 0.2220
vn 0.1112 0.1572 -0.9813
vn 0.0771 -0.8486 -0.5233
vn -0.9994 0.0301 0.0173
vn -0.9741 -0.2215 -0.0455
vn -0.0000 0.0632 0.9980
vn -0.0000 0.2824 0.9593
vn 0.9044 0.0337 -0.4254
vn 0.8199 -0.3671 -0.4393
vn 0.0672 0.0072 -0.9977
vn -0.9978 -0.0058 -0.0658
vn -0.0000 0.2635 0.9647
vn 0.9544 0.0774 -0.2882
vn 0.7336 -0.6687 -0.1210
vn 0.1405 -0.5513 0.8224
vn -0.9319 -0.2556 -0.2573
vn 0.0152 -0.2246 -0.9743
vn -0.0000 0.8113 0.5846
vn 0.1054 -0.9881 -0.1118
vn -0.8955 0.2023 -0.3964
vn -0.9685 0.0468 -0.2445
vn 0.0454 -0.2186 0.9748
vn -0.1369 0.4019 -0.9054
vn -0.0000 0.3579 -0.9338
vn -0.0000 -0.8579 -0.5138
vn 0.8955 0.2023 -0.3964
vn -0.0000 1.0000 0.0079
vn -0.0454 -0.2186 0.9748
vn -0.1054 -0.9881 -0.1118
vn -0.0152 -0.2246 -0.9743
vn -0.1405 -0.5513 0.8224
vn -0.0386 -0.9926 -0.1155
vn 0.9685 0.0468 -0.2445
vn 0.0707 -0.1924 0.9788
vn 0.0386 -0.9926 -0.1155
vn -0.7336 -0.6687 -0.1210
vn 0.9319 -0.2556 -0.2573
vn 0.9940 -0.0683 0.0858
vn -0.9940 -0.0683 0.0858
vn 0.5685 -0.7918 -0.2232
vn -0.0707 -0.1924 0.9788
vn -0.5685 -0.7918 -0.2232
vn 0.1369 0.4019 -0.9054
vn 0.9838 0.0623 -0.1680
vn 0.0544 -0.0938 0.9941
vn -0.9035 -0.4285 0.0080
vn 0.0191 -0.1103 -0.9937
vn 0.0496 0.9985 -0.0231
vn 0.3555 -0.9342 -0.0291
vn -0.8857 0.1819 -0.4271
vn -0.9311 0.3641 0.0207
vn 0.0924 0.1304 0.9871
vn 0.9788 0.0218 -0.2038
vn 0.0142 0.0160 -0.9998
vn -0.0080 -0.9869 -0.1612
vn 0.9999 -0.0070 0.0131
vn 0.0319 0.9988 -0.0385
vn 0.9990 0.0405 -0.0193
vn -0.0000 0.0531 -0.9986
vn -0.9990 0.0405 -0.0193
vn -0.0000 -0.1629 0.9866
vn -0.0000 -1.0000 -0.0000
vn -0.0000 0.9750 -0.2220
vn 0.1050 -0.1573 0.9820
vn 0.0728 0.8489 0.5235
vn -0.9993 -0.0318 -0.0183
vn -0.9711 0.2338 0.0481
vn -0.0000 -0.0632 -0.9980
vn -0.0000 -0.2824 -0.9593
vn 0.8945 -0.0353 0.4457
vn 0.8040 0.3813 0.4563
vn 0.0635 -0.0072 0.9980
vn -0.9976 0.0061 0.0696
vn -0.0000 -0.2635 -0.9647
vn 0.9493 -0.0815 0.3036
vn 0.9838 -0.0623 0.1680
vn 0.0544 0.0938 -0.9941
vn -0.9035 0.4285 -0.0080
vn 0.0191 0.1103 0.9937
vn 0.0496 -0.9985 0.0231
vn 0.3555 0.9342 0.0291
vn -0.8857 -0.1819 0.4271
vn -0.9311 -0.3641 -0.0207
vn 0.0924 -0.1304 -0.9871
vn 0.9788 -0.0218 0.2038
vn 0.0142 -0.0160 0.9998
vn -0.0080 0.9869 0.1612
vn 0.9999 0.0070 -0.0131
vn 0.0319 -0.9988 0.0385
vt 0.409035 0.456259
vt 0.409035 0.293741
vt 0.625000 0.534644
vt 0.875000 0.531737
vt 0.875000 0.750000
vt 0.625000 0.750000
vt 0.590965 0.293741
vt 0.590965 0.456259
vt 0.375000 0.750000
vt 0.625000 1.000000
vt 0.375000 1.000000
vt 0.375000 0.000000
vt 0.625000 0.000000
vt 0.625000 0.218263
vt 0.375000 0.218263
vt 0.375000 0.534644
vt 0.625000 0.534644
vt 0.375000 0.500000
vt 0.375000 0.250000
vt 0.625000 0.250000
vt 0.625000 0.500000
vt 0.125000 0.531737
vt 0.125000 0.750000
vt 0.625000 0.687500
vt 0.875000 0.687500
vt 0.375000 0.187500
vt 0.625000 0.187500
vt 0.125000 0.687500
vt 0.375000 0.687500
vt 0.625000 0.562500
vt 0.375000 0.562500
vt 0.625000 0.625000
vt 0.375000 0.625000
vt 0.125000 0.500000
vt 0.125000 0.562500
vt 0.125000 0.625000
vt 0.625000 0.062500
vt 0.375000 0.062500
vt 0.625000 0.125000
vt 0.375000 0.125000
vt 0.875000 0.500000
vt 0.875000 0.562500
vt 0.875000 0.625000
vt 0.578372 0.000000
vt 0.578372 0.250000
vt 0.578372 0.500000
vt 0.578372 0.750000
vt 0.578372 1.000000
vt 0.448411 0.750000
vt 0.448411 1.000000
vt 0.531744 0.750000
vt 0.531744 1.000000
vt 0.448411 0.500000
vt 0.531744 0.500000
vt 0.448411 0.250000
vt 0.531744 0.250000
vt 0.448411 0.000000
vt 0.531744 0.000000
vt 0.500000 0.125000
vt 0.500000 0.250000
vt 0.500000 0.375000
vt 0.625000 0.375000
vt 0.500000 0.500000
vt 0.500000 0.625000
vt 0.500000 0.750000
vt 0.500000 0.875000
vt 0.625000 0.875000
vt 0.500000 1.000000
vt 0.250000 0.625000
vt 0.250000 0.750000
vt 0.750000 0.625000
vt 0.750000 0.750000
vt 0.375000 0.375000
vt 0.375000 0.125000
vt 0.375000 0.875000
vt 0.500000 0.000000
vt 0.250000 0.500000
vt 0.750000 0.500000
vt 0.450148 0.000000
vt 0.450148 0.250000
vt 0.450148 0.500000
vt 0.450148 0.750000
vt 0.450148 1.000000
s 0
usemtl Material
f 13/1/1 4/1/1 7/2/1 9/2/1
f 15/3/2 6/6/2 2/5/2 12/4/2
f 7/2/3 4/1/3 3/8/3 8/7/3
f 5/9/4 1/11/4 2/10/4 6/6/4
f 1/12/5 10/15/5 12/14/5 2/13/5
f 14/16/6 5/9/6 6/6/6 15/17/6
f 11/7/7 12/14/7 10/15/7 9/2/7
f 14/18/8 13/1/8 9/2/8 10/19/8
f 12/20/9 11/7/9 16/8/9 15/21/9
f 15/17/10 16/8/10 13/1/10 14/16/10
f 10/22/11 1/23/11 5/9/11 14/16/11
f 16/8/12 3/8/12 4/1/12 13/1/12
f 11/7/13 8/7/13 3/8/13 16/8/13
f 9/2/14 7/2/14 8/7/14 11/7/14
f 30/24/15 19/6/15 23/5/15 31/25/15
f 20/9/16 24/11/16 23/10/16 19/6/16
f 25/26/17 22/19/17 21/20/17 33/27/17
f 27/28/18 24/23/18 20/9/18 34/29/18
f 34/29/19 20/9/19 19/6/19 30/24/19
f 22/19/20 18/18/20 17/21/20 21/20/20
f 18/18/21 36/31/21 28/30/21 17/21/21
f 36/31/22 35/33/22 29/32/22 28/30/22
f 35/33/23 34/29/23 30/24/23 29/32/23
f 22/34/24 25/35/24 36/31/24 18/18/24
f 25/35/25 26/36/25 35/33/25 36/31/25
f 26/36/26 27/28/26 34/29/26 35/33/26
f 24/12/27 27/38/27 31/37/27 23/13/27
f 27/38/28 26/40/28 32/39/28 31/37/28
f 26/40/29 25/26/29 33/27/29 32/39/29
f 17/21/30 28/30/30 33/42/30 21/41/30
f 28/30/31 29/32/31 32/43/31 33/42/31
f 29/32/32 30/24/32 31/25/32 32/43/32
f 53/44/33 54/45/33 40/20/33 38/13/33
f 54/45/34 55/46/34 44/21/34 40/20/34
f 55/46/35 56/47/35 42/6/35 44/21/35
f 56/47/36 53/48/36 38/10/36 42/6/36
f 39/34/37 37/23/37 41/9/37 43/18/37
f 44/21/38 42/6/38 38/5/38 40/41/38
f 41/9/39 37/11/39 45/50/39 52/49/39
f 52/49/40 45/50/40 46/52/40 51/51/40
f 43/18/41 41/9/41 52/49/41 50/53/41
f 50/53/42 52/49/42 51/51/42 49/54/42
f 39/19/43 43/18/43 50/53/43 48/55/43
f 48/55/44 50/53/44 49/54/44 47/56/44
f 37/12/45 39/19/45 48/55/45 45/57/45
f 45/57/46 48/55/46 47/56/46 46/58/46
f 51/51/47 46/52/47 53/48/47 56/47/47
f 49/54/48 51/51/48 56/47/48 55/46/48
f 47/56/49 49/54/49 55/46/49 54/45/49
f 46/58/50 47/56/50 54/45/50 53/44/50
f 86/59/51 66/60/51 60/20/51 82/39/51
f 78/61/52 67/63/52 64/21/52 74/62/52
f 85/64/53 68/65/53 62/6/53 84/32/53
f 77/66/54 65/68/54 58/10/54 76/67/54
f 88/69/55 75/70/55 61/9/55 83/33/55
f 87/71/56 76/72/56 58/5/56 82/43/56
f 61/9/57 70/9/57 69/65/57 68/65/57
f 83/33/58 61/9/58 68/65/58 85/64/58
f 73/73/59 63/18/59 67/63/59 78/61/59
f 81/74/60 95/74/60 94/59/60 86/59/60
f 79/75/61 71/11/61 72/68/61 80/66/61
f 77/66/62 80/66/62 72/68/62 65/68/62
f 65/76/63 72/76/63 71/12/63 57/12/63
f 75/70/64 79/70/64 70/9/64 61/9/64
f 57/23/64 71/23/64 79/70/64 75/70/64
f 68/65/62 69/65/62 80/66/62 77/66/62
f 70/9/61 79/75/61 80/66/61 69/65/61
f 59/19/65 73/73/65 78/61/65 66/60/65
f 84/32/66 62/6/66 76/72/66 87/71/66
f 81/36/55 57/23/55 75/70/55 88/69/55
f 68/65/67 77/66/67 76/67/67 62/6/67
f 66/60/68 78/61/68 74/62/68 60/20/68
f 59/34/55 81/36/55 88/69/55 73/77/55
f 64/21/69 84/32/69 87/71/69 74/78/69
f 57/12/70 81/74/70 86/59/70 65/76/70
f 66/60/71 89/60/71 90/19/71 59/19/71
f 74/78/72 87/71/72 82/43/72 60/41/72
f 73/77/55 88/69/55 83/33/55 63/18/55
f 67/63/73 85/64/73 84/32/73 64/21/73
f 65/76/74 86/59/74 82/39/74 58/13/74
f 95/74/75 90/19/75 89/60/75 94/59/75
f 92/18/76 93/33/76 96/64/76 91/63/76
f 86/59/77 94/59/77 89/60/77 66/60/77
f 63/18/78 92/18/78 91/63/78 67/63/78
f 67/63/79 91/63/79 96/64/79 85/64/79
f 85/64/80 96/64/80 93/33/80 83/33/80
f 59/34/55 90/34/55 95/36/55 81/36/55
f 83/33/55 93/33/55 92/18/55 63/18/55
f 105/79/81 106/80/81 100/20/81 98/13/81
f 106/80/82 107/81/82 104/21/82 100/20/82
f 107/81/83 108/82/83 102/6/83 104/21/83
f 108/82/84 105/83/84 98/10/84 102/6/84
f 99/34/85 97/23/85 101/9/85 103/18/85
f 104/21/86 102/6/86 98/5/86 100/41/86
f 101/9/87 110/9/87 109/82/87 108/82/87
f 103/18/88 101/9/88 108/82/88 107/81/88
f 99/19/89 103/18/89 107/81/89 106/80/89
f 97/12/90 99/19/90 106/80/90 105/79/90
f 110/9/91 111/11/91 112/83/91 109/82/91
f 108/82/92 109/82/92 112/83/92 105/83/92
f 105/79/93 112/79/93 111/12/93 97/12/93
f 97/23/94 111/23/94 110/9/94 101/9/94
f 129/44/95 130/45/95 116/20/95 114/13/95
f 130/45/96 131/46/96 120/21/96 116/20/96
f 131/46/97 132/47/97 118/6/97 120/21/97
f 132/47/98 129/48/98 114/10/98 118/6/98
f 115/34/99 113/23/99 117/9/99 119/18/99
f 120/21/100 118/6/100 114/5/100 116/41/100
f 117/9/101 113/11/101 121/50/101 128/49/101
f 128/49/102 121/50/102 122/52/102 127/51/102
f 119/18/103 117/9/103 128/49/103 126/53/103
f 126/53/104 128/49/104 127/51/104 125/54/104
f 115/19/105 119/18/105 126/53/105 124/55/105
f 124/55/106 126/53/106 125/54/106 123/56/106
f 113/12/107 115/19/107 124/55/107 121/57/107
f 121/57/108 124/55/108 123/56/108 122/58/108
f 127/51/109 122/52/109 129/48/109 132/47/109
f 125/54/110 127/51/110 132/47/110 131/46/110
f 123/56/111 125/54/111 131/46/111 130/45/111
f 122/58/112 123/56/112 130/45/112 129/44/112
f 141/79/113 142/80/113 136/20/113 134/13/113
f 142/80/114 143/81/114 140/21/114 136/20/114
f 143/81/115 144/82/115 138/6/115 140/21/115
f 144/82/116 141/83/116 134/10/116 138/6/116
f 135/34/117 133/23/117 137/9/117 139/18/117
f 140/21/118 138/6/118 134/5/118 136/41/118
f 137/9/119 146/9/119 145/82/119 144/82/119
f 139/18/120 137/9/120 144/82/120 143/81/120
f 135/19/121 139/18/121 143/81/121 142/80/121
f 133/12/122 135/19/122 142/80/122 141/79/122
f 146/9/123 147/11/123 148/83/123 145/82/123
f 144/82/124 145/82/124 148/83/124 141/83/124
f 141/79/125 148/79/125 147/12/125 133/12/125
f 133/23/126 147/23/126 146/9/126 137/9/126
l 86 85
